# xmcd CD database file
#
# Track frame offsets:
#	150
#	18001
#	33152
#	49353
#	72154
#
# Disc length: 1144 seconds
#
# Revision: 0
# Processed by: cddbd v1.5.1PL0 Copyright (c) Steve Scherf et al.
# Submitted via: CDex 1.50
#
DISCID=36047605
DTITLE=空色絵本 - こぼれたパズル
DYEAR=2003
DGENRE=New Age
TTITLE0=白×黒
TTITLE1=７人。
TTITLE2=つなぐ空
TTITLE3=レンズ
TTITLE4=warm
EXTD=YEAR: 2003
EXTT0=
EXTT1=
EXTT2=
EXTT3=
EXTT4=
PLAYORDER=
